<?xml version="1.0" encoding="UTF-8" standalone="no"?>
<!-- Created with Inkscape (http://www.inkscape.org/) -->

<svg
   xmlns:dc="http://purl.org/dc/elements/1.1/"
   xmlns:cc="http://creativecommons.org/ns#"
   xmlns:rdf="http://www.w3.org/1999/02/22-rdf-syntax-ns#"
   xmlns:svg="http://www.w3.org/2000/svg"
   xmlns="http://www.w3.org/2000/svg"
   xmlns:sodipodi="http://sodipodi.sourceforge.net/DTD/sodipodi-0.dtd"
   xmlns:inkscape="http://www.inkscape.org/namespaces/inkscape"
   width="900"
   height="1200"
   viewBox="0 0 238.12499 317.50001"
   version="1.1"
   id="svg8"
   inkscape:version="0.92.2 5c3e80d, 2017-08-06"
   sodipodi:docname="grid.svg">
  <defs
     id="defs2" />
  <sodipodi:namedview
     id="base"
     pagecolor="#ffffff"
     bordercolor="#666666"
     borderopacity="1.0"
     inkscape:pageopacity="0.0"
     inkscape:pageshadow="2"
     inkscape:zoom="0.35"
     inkscape:cx="-90"
     inkscape:cy="560"
     inkscape:document-units="mm"
     inkscape:current-layer="layer1"
     showgrid="false"
     units="px"
     inkscape:window-width="1280"
     inkscape:window-height="755"
     inkscape:window-x="0"
     inkscape:window-y="1"
     inkscape:window-maximized="1" />
  <metadata
     id="metadata5">
    <rdf:RDF>
      <cc:Work
         rdf:about="">
        <dc:format>image/svg+xml</dc:format>
        <dc:type
           rdf:resource="http://purl.org/dc/dcmitype/StillImage" />
        <dc:title></dc:title>
      </cc:Work>
    </rdf:RDF>
  </metadata>
  <g
     inkscape:label="Layer 1"
     inkscape:groupmode="layer"
     id="layer1"
     transform="translate(0,20.500017)">
    <rect
       style="fill:#ffffff;stroke-width:0.26458332"
       id="rect60"
       width="238.125"
       height="317.5"
       x="0"
       y="-20.500017"
       rx="1.7621039" />
    <path
       d="M 0.1322915,-20.632299 V 296.86769 M 8.0697912,-20.632299 V 296.86769 M 16.00729,-20.632299 V 296.86769 m 7.9375,-317.499989 V 296.86769 m 7.9375,-317.499989 V 296.86769 M 39.819789,-20.632299 V 296.86769 m 7.9375,-317.499989 V 296.86769 m 7.9375,-317.499989 V 296.86769 M 63.632288,-20.632299 V 296.86769 m 7.9375,-317.499989 V 296.86769 m 7.9375,-317.499989 V 296.86769 M 87.444787,-20.632299 V 296.86769 m 7.9375,-317.499989 V 296.86769 M 103.31979,-20.632299 V 296.86769 m 7.9375,-317.499989 V 296.86769 m 7.9375,-317.499989 V 296.86769 m 7.93749,-317.499989 V 296.86769 m 7.9375,-317.499989 V 296.86769 m 7.9375,-317.499989 V 296.86769 m 7.9375,-317.499989 V 296.86769 m 7.9375,-317.499989 V 296.86769 m 7.9375,-317.499989 V 296.86769 m 7.9375,-317.499989 V 296.86769 m 7.9375,-317.499989 V 296.86769 m 7.9375,-317.499989 V 296.86769 m 7.9375,-317.499989 V 296.86769 m 7.9375,-317.499989 V 296.86769 m 7.9375,-317.499989 V 296.86769 m 7.9375,-317.499989 V 296.86769 m 7.9375,-317.499989 V 296.86769 m 7.9375,-317.499989 V 296.86769 M 0.1322915,-20.632299 H 238.25728 m -238.1249885,7.9375 H 238.25728 M 0.1322915,-4.7572995 H 238.25728 M 0.1322915,3.1802005 H 238.25728 M 0.1322915,11.117701 H 238.25728 M 0.1322915,19.0552 H 238.25728 M 0.1322915,26.9927 H 238.25728 M 0.1322915,34.9302 H 238.25728 M 0.1322915,42.867699 H 238.25728 M 0.1322915,50.805199 H 238.25728 M 0.1322915,58.742699 H 238.25728 M 0.1322915,66.680198 H 238.25728 M 0.1322915,74.617698 H 238.25728 M 0.1322915,82.555202 H 238.25728 M 0.1322915,90.492702 H 238.25728 M 0.1322915,98.430192 H 238.25728 M 0.1322915,106.36769 H 238.25728 M 0.1322915,114.30519 H 238.25728 M 0.1322915,122.24269 H 238.25728 M 0.1322915,130.18019 H 238.25728 M 0.1322915,138.11769 H 238.25728 M 0.1322915,146.05519 H 238.25728 M 0.1322915,153.99269 H 238.25728 M 0.1322915,161.93019 H 238.25728 M 0.1322915,169.86769 H 238.25728 M 0.1322915,177.80519 H 238.25728 M 0.1322915,185.74269 H 238.25728 M 0.1322915,193.68019 H 238.25728 M 0.1322915,201.61769 H 238.25728 M 0.1322915,209.55519 H 238.25728 M 0.1322915,217.49269 H 238.25728 M 0.1322915,225.43019 H 238.25728 M 0.1322915,233.36769 H 238.25728 M 0.1322915,241.30519 H 238.25728 M 0.1322915,249.24269 H 238.25728 M 0.1322915,257.18019 H 238.25728 M 0.1322915,265.11769 H 238.25728 M 0.1322915,273.05519 H 238.25728 M 0.1322915,280.99269 H 238.25728 M 0.1322915,288.93019 H 238.25728 M 0.1322915,296.86769 H 238.25728"
       style="fill:none;stroke:#000000;stroke-width:0.26458299px"
       id="path72"
       inkscape:connector-curvature="0" />
  </g>
</svg>
