<?xml version="1.0" encoding="UTF-8" standalone="no"?>
<!-- Created with Inkscape (http://www.inkscape.org/) -->

<svg
   xmlns:dc="http://purl.org/dc/elements/1.1/"
   xmlns:cc="http://creativecommons.org/ns#"
   xmlns:rdf="http://www.w3.org/1999/02/22-rdf-syntax-ns#"
   xmlns:svg="http://www.w3.org/2000/svg"
   xmlns="http://www.w3.org/2000/svg"
   xmlns:sodipodi="http://sodipodi.sourceforge.net/DTD/sodipodi-0.dtd"
   xmlns:inkscape="http://www.inkscape.org/namespaces/inkscape"
   width="900"
   height="1200"
   viewBox="0 0 238.12499 317.50001"
   version="1.1"
   id="svg8"
   inkscape:version="0.92.2 5c3e80d, 2017-08-06"
   sodipodi:docname="grid.svg">
  <defs
     id="defs2" />
  <sodipodi:namedview
     id="base"
     pagecolor="#e6e6e6"
     bordercolor="#666666"
     borderopacity="1.0"
     inkscape:pageopacity="0"
     inkscape:pageshadow="2"
     inkscape:zoom="0.49497475"
     inkscape:cx="-194.10307"
     inkscape:cy="647.50691"
     inkscape:document-units="mm"
     inkscape:current-layer="layer1"
     showgrid="false"
     units="px"
     inkscape:window-width="1280"
     inkscape:window-height="755"
     inkscape:window-x="0"
     inkscape:window-y="1"
     inkscape:window-maximized="1" />
  <metadata
     id="metadata5">
    <rdf:RDF>
      <cc:Work
         rdf:about="">
        <dc:format>image/svg+xml</dc:format>
        <dc:type
           rdf:resource="http://purl.org/dc/dcmitype/StillImage" />
        <dc:title></dc:title>
      </cc:Work>
    </rdf:RDF>
  </metadata>
  <g
     inkscape:label="Layer 1"
     inkscape:groupmode="layer"
     id="layer1"
     transform="translate(0,20.500017)">
    <rect
       style="fill:#e6e6e6;stroke-width:0.26458332;fill-opacity:0"
       id="rect60"
       width="238.125"
       height="317.5"
       x="0"
       y="-20.500017"
       rx="1.7621039" />
    <path
       d="M 1.4e-5,-20.500017 V 296.99997 m 7.9375,-317.499987 V 296.99997 m 7.9375,-317.499987 V 296.99997 m 7.9375,-317.499987 V 296.99997 m 7.9375,-317.499987 V 296.99997 m 7.9375,-317.499987 V 296.99997 m 7.9375,-317.499987 V 296.99997 m 7.9375,-317.499987 V 296.99997 m 7.93749,-317.499987 V 296.99997 m 7.9375,-317.499987 V 296.99997 m 7.9375,-317.499987 V 296.99997 m 7.9375,-317.499987 V 296.99997 m 7.9375,-317.499987 V 296.99997 M 103.18751,-20.500017 V 296.99997 m 7.9375,-317.499987 V 296.99997 m 7.9375,-317.499987 V 296.99997 M 127,-20.500017 V 296.99997 m 7.9375,-317.499987 V 296.99997 M 142.875,-20.500017 V 296.99997 m 7.9375,-317.499987 V 296.99997 M 158.75,-20.500017 V 296.99997 m 7.9375,-317.499987 V 296.99997 M 174.625,-20.500017 V 296.99997 m 7.9375,-317.499987 V 296.99997 M 190.5,-20.500017 V 296.99997 m 7.9375,-317.499987 V 296.99997 M 206.375,-20.500017 V 296.99997 m 7.9375,-317.499987 V 296.99997 M 222.25,-20.500017 V 296.99997 m 7.9375,-317.499987 V 296.99997 M 238.125,-20.500017 V 296.99997 M 1.4e-5,-20.500017 H 238.125 M 1.4e-5,-12.562517 H 238.125 M 1.4e-5,-4.6250182 H 238.125 M 1.4e-5,3.3124818 H 238.125 M 1.4e-5,11.249983 H 238.125 M 1.4e-5,19.187482 H 238.125 M 1.4e-5,27.124982 H 238.125 M 1.4e-5,35.062482 H 238.125 M 1.4e-5,42.999981 H 238.125 M 1.4e-5,50.937481 H 238.125 M 1.4e-5,58.874981 H 238.125 M 1.4e-5,66.81248 H 238.125 M 1.4e-5,74.74998 H 238.125 M 1.4e-5,82.687484 H 238.125 M 1.4e-5,90.624984 H 238.125 M 1.4e-5,98.562474 H 238.125 M 1.4e-5,106.49997 H 238.125 M 1.4e-5,114.43747 H 238.125 M 1.4e-5,122.37497 H 238.125 M 1.4e-5,130.31247 H 238.125 M 1.4e-5,138.24997 H 238.125 M 1.4e-5,146.18747 H 238.125 M 1.4e-5,154.12497 H 238.125 M 1.4e-5,162.06247 H 238.125 M 1.4e-5,169.99997 H 238.125 M 1.4e-5,177.93747 H 238.125 M 1.4e-5,185.87497 H 238.125 M 1.4e-5,193.81247 H 238.125 M 1.4e-5,201.74997 H 238.125 M 1.4e-5,209.68747 H 238.125 M 1.4e-5,217.62497 H 238.125 M 1.4e-5,225.56247 H 238.125 M 1.4e-5,233.49997 H 238.125 M 1.4e-5,241.43747 H 238.125 M 1.4e-5,249.37497 H 238.125 M 1.4e-5,257.31247 H 238.125 M 1.4e-5,265.24997 H 238.125 M 1.4e-5,273.18747 H 238.125 M 1.4e-5,281.12497 H 238.125 M 1.4e-5,289.06247 H 238.125 M 1.4e-5,296.99997 H 238.125"
       style="fill:none;fill-opacity:1;stroke:#000000;stroke-width:0.26458299px"
       id="path72"
       inkscape:connector-curvature="0" />
    <path
       style="fill:#e6e6e6;fill-opacity:0;stroke-width:2.85714293"
       d="m 331.38861,854 c 0.0215,-7.85714 0.57632,-10.73232 1.23305,-6.38929 0.65673,4.34304 0.63918,10.77161 -0.039,14.28572 -0.67818,3.51411 -1.2155,-0.0393 -1.19405,-7.89643 z"
       id="path4513"
       inkscape:connector-curvature="0"
       transform="matrix(0.26458333,0,0,0.26458333,0,-20.500017)" />
    <path
       style="fill:#a02c2c;fill-opacity:0;stroke-width:2.85714293"
       d="m 333.42857,854 v -12.85714 h 12.85714 12.85715 V 854 866.85714 h -12.85715 -12.85714 z"
       id="path4515"
       inkscape:connector-curvature="0"
       transform="matrix(0.26458333,0,0,0.26458333,0,-20.500017)" />
    <path
       style="fill:#a02c2c;fill-opacity:0;stroke-width:2.85714293"
       d="m 302,1005.4286 v -12.85717 h 12.85714 12.85715 v 12.85717 12.8571 H 314.85714 302 Z"
       id="path4517"
       inkscape:connector-curvature="0"
       transform="matrix(0.26458333,0,0,0.26458333,0,-20.500017)" />
    <path
       style="fill:#a02c2c;fill-opacity:0;stroke-width:2.85714293"
       d="m 333.42857,959.71429 v -58.57143 h 12.85714 12.85715 V 854 806.85714 H 346.28571 333.42857 V 794 781.14286 h 12.69286 12.69286 l 1.09368,12.14285 c 0.60154,6.67858 1.31832,-6.82142 1.59286,-30 L 362,721.14286 h 11.51823 c 12.66237,0 13.12017,-0.63017 15.04834,-20.71429 l 1.30294,-13.57143 H 195.93475 2 v -27.14285 -27.14286 h 12.857143 c 11.809523,0 12.857143,0.582 12.857143,7.14286 0,3.92857 1.285714,7.14285 2.857143,7.14285 1.571428,0 2.857142,-3.21428 2.857142,-7.14285 v -7.14286 H 137.71429 242 v -15.71429 -15.71428 l 15,0.006 15,0.006 V 586.1498 571.14474 h 15.00506 c 8.2528,0 15.0028,-0.96428 15,-2.14286 -0.003,-1.17857 5.65657,-2.14285 12.57634,-2.14285 h 12.58137 l 1.62763,-13.57143 c 0.8952,-7.46429 2.43446,-19.67857 3.4206,-27.14286 l 1.79297,-13.57143 h 12.56943 12.56946 v 27.14286 27.14286 h -15.71429 -15.71428 v 15.71428 15.71429 h -14.28572 -14.28571 v 14.28571 14.28572 h -15.71429 -15.71428 v 15.61083 15.61082 l -27.85715,0.93406 c -15.32143,0.51374 18.75,1.20314 75.71429,1.53203 l 103.57143,0.59666 v 28.84717 28.8472 l -14.01703,-0.99006 c -7.70937,-0.54451 -13.4192,-0.0257 -12.68852,1.15283 0.73066,1.17857 -0.0331,2.14286 -1.69725,2.14286 -1.99512,0 -3.02577,14.59825 -3.02577,42.85714 v 42.85714 H 375.31463 362.915 l -1.87989,70.71429 c -1.03394,38.89286 -1.88265,86.46428 -1.88605,105.71428 l -0.006,35.00002 H 346.28571 333.42857 Z M 137,659.03646 c -8.25,-0.57715 -21.75,-0.57715 -30,0 -8.25,0.57714 -1.5,1.04937 15,1.04937 16.5,0 23.25,-0.47223 15,-1.04937 z M 362,495.42857 v -42.85714 h 12.85714 12.85715 v 42.85714 42.85714 H 374.85714 362 Z M 391.56654,459 c 1.00177,-10.60714 1.83055,-23.46429 1.84172,-28.57143 0.02,-8.6612 0.67714,-9.28571 9.78663,-9.28571 18.44577,0 18.80511,-0.60639 18.80511,-31.73426 v -28.26574 h 12.85714 12.85715 v 28.41488 28.41488 l -13.57143,0.87083 -13.57143,0.87084 L 419.7572,449 l -0.81426,29.28571 h -14.59891 -14.59892 z m 60.8006,-94.71679 c 0.58377,-11.62995 1.06143,-30.59424 1.06143,-42.14286 v -20.99749 h 12.85714 12.85715 v 30 30 h -12.7006 -12.7006 l -1.21797,12.14285 c -0.66989,6.67858 -0.74035,2.62745 -0.15658,-9.0025 z M 482,299.71429 v -27.14286 h 13.98003 c 15.88443,0 17.44854,-1.94185 17.44854,-21.66225 v -12.62347 h 12.85714 12.85715 l 0.0437,-12.14285 c 0.0589,-16.31545 2.15529,-18.73684 17.14606,-19.80311 l 12.81023,-0.91118 0.87857,-12.14286 0.87857,-12.14285 h 14.12143 14.12143 V 194 206.85714 h -11.19489 c -18.17351,0 -20.23368,1.77659 -20.23368,17.44854 v 13.98003 H 553.42857 539.14286 V 254 269.71429 H 526.28571 513.42857 V 284 c 0,7.85714 -1.28571,14.28571 -2.85714,14.28571 -1.57143,0 -2.85714,6.42858 -2.85714,14.28572 v 14.28571 H 494.85714 482 Z"
       id="path4519"
       inkscape:connector-curvature="0"
       transform="matrix(0.26458333,0,0,0.26458333,0,-20.500017)" />
    <path
       style="fill:#a02c2c;fill-opacity:0;stroke-width:2.85714293"
       d="m 548.46786,239.09263 c 4.34303,-0.65673 10.7716,-0.63918 14.28571,0.039 3.51411,0.67817 -0.0393,1.21549 -7.89643,1.19404 -7.85714,-0.0215 -10.73232,-0.57632 -6.38928,-1.23304 z"
       id="path4521"
       inkscape:connector-curvature="0"
       transform="matrix(0.26458333,0,0,0.26458333,0,-20.500017)" />
    <path
       style="fill:#a02c2c;fill-opacity:0;stroke-width:2.85714293"
       d="m 548.46786,239.09263 c 4.34303,-0.65673 10.7716,-0.63918 14.28571,0.039 3.51411,0.67817 -0.0393,1.21549 -7.89643,1.19404 -7.85714,-0.0215 -10.73232,-0.57632 -6.38928,-1.23304 z"
       id="path4523"
       inkscape:connector-curvature="0"
       transform="matrix(0.26458333,0,0,0.26458333,0,-20.500017)" />
    <path
       style="fill:#a02c2c;fill-opacity:0;stroke-width:2.85714293"
       d="m 548.46786,239.09263 c 4.34303,-0.65673 10.7716,-0.63918 14.28571,0.039 3.51411,0.67817 -0.0393,1.21549 -7.89643,1.19404 -7.85714,-0.0215 -10.73232,-0.57632 -6.38928,-1.23304 z"
       id="path4525"
       inkscape:connector-curvature="0"
       transform="matrix(0.26458333,0,0,0.26458333,0,-20.500017)" />
  </g>
</svg>
